<mxfile host="app.diagrams.net" agent="Mozilla/5.0 (Windows NT 10.0; Win64; x64) AppleWebKit/537.36 (KHTML, like Gecko) Chrome/131.0.0.0 Safari/537.36" version="26.0.1">
  <diagram name="第 1 页" id="fGgCCGdlfKADI7kk8PM0">
    <mxGraphModel dx="989" dy="514" grid="1" gridSize="10" guides="1" tooltips="1" connect="1" arrows="1" fold="1" page="1" pageScale="1" pageWidth="827" pageHeight="1169" math="0" shadow="0">
      <root>
        <mxCell id="0" />
        <mxCell id="1" parent="0" />
        <mxCell id="tKZLHIDSZewc5tMyk5Ng-7" style="edgeStyle=orthogonalEdgeStyle;rounded=0;orthogonalLoop=1;jettySize=auto;html=1;entryX=0;entryY=0.5;entryDx=0;entryDy=0;" edge="1" parent="1" source="tKZLHIDSZewc5tMyk5Ng-1" target="tKZLHIDSZewc5tMyk5Ng-2">
          <mxGeometry relative="1" as="geometry" />
        </mxCell>
        <mxCell id="tKZLHIDSZewc5tMyk5Ng-8" style="edgeStyle=orthogonalEdgeStyle;rounded=0;orthogonalLoop=1;jettySize=auto;html=1;entryX=0;entryY=0.5;entryDx=0;entryDy=0;" edge="1" parent="1" source="tKZLHIDSZewc5tMyk5Ng-1" target="tKZLHIDSZewc5tMyk5Ng-5">
          <mxGeometry relative="1" as="geometry" />
        </mxCell>
        <mxCell id="tKZLHIDSZewc5tMyk5Ng-1" value="1.1命令式和声明式" style="rounded=0;whiteSpace=wrap;html=1;" vertex="1" parent="1">
          <mxGeometry x="90" y="170" width="120" height="60" as="geometry" />
        </mxCell>
        <mxCell id="tKZLHIDSZewc5tMyk5Ng-2" value="命令式：更关注做事的过程，比如原先的jQuery。" style="rounded=0;whiteSpace=wrap;html=1;align=left;verticalAlign=top;" vertex="1" parent="1">
          <mxGeometry x="260" y="120" width="120" height="60" as="geometry" />
        </mxCell>
        <mxCell id="tKZLHIDSZewc5tMyk5Ng-5" value="声明式：更关注做事的结果，比如vue内部实现是命令式的，但暴露给用户的是声明式。&lt;div&gt;声明式代码的性能不优于命令式代码的性能。&lt;/div&gt;&lt;div&gt;声明式代码的可维护性更强。&lt;/div&gt;&lt;div&gt;框架设计者要做的就是：在保持可维护性的同时让性能损失最&lt;br&gt;小化。&lt;/div&gt;" style="rounded=0;whiteSpace=wrap;html=1;align=left;verticalAlign=top;" vertex="1" parent="1">
          <mxGeometry x="260" y="210" width="120" height="210" as="geometry" />
        </mxCell>
        <mxCell id="tKZLHIDSZewc5tMyk5Ng-9" style="edgeStyle=orthogonalEdgeStyle;rounded=0;orthogonalLoop=1;jettySize=auto;html=1;entryX=0;entryY=0.5;entryDx=0;entryDy=0;" edge="1" parent="1" source="tKZLHIDSZewc5tMyk5Ng-11" target="tKZLHIDSZewc5tMyk5Ng-12">
          <mxGeometry relative="1" as="geometry" />
        </mxCell>
        <mxCell id="tKZLHIDSZewc5tMyk5Ng-10" style="edgeStyle=orthogonalEdgeStyle;rounded=0;orthogonalLoop=1;jettySize=auto;html=1;entryX=0;entryY=0.5;entryDx=0;entryDy=0;" edge="1" parent="1" source="tKZLHIDSZewc5tMyk5Ng-11" target="tKZLHIDSZewc5tMyk5Ng-13">
          <mxGeometry relative="1" as="geometry" />
        </mxCell>
        <mxCell id="tKZLHIDSZewc5tMyk5Ng-11" value="1.2虚拟dom" style="rounded=0;whiteSpace=wrap;html=1;" vertex="1" parent="1">
          <mxGeometry x="90" y="484" width="120" height="60" as="geometry" />
        </mxCell>
        <mxCell id="tKZLHIDSZewc5tMyk5Ng-12" value="创建时，差异较小" style="rounded=0;whiteSpace=wrap;html=1;align=left;verticalAlign=top;" vertex="1" parent="1">
          <mxGeometry x="260" y="434" width="120" height="60" as="geometry" />
        </mxCell>
        <mxCell id="tKZLHIDSZewc5tMyk5Ng-15" value="" style="edgeStyle=orthogonalEdgeStyle;rounded=0;orthogonalLoop=1;jettySize=auto;html=1;" edge="1" parent="1" source="tKZLHIDSZewc5tMyk5Ng-13" target="tKZLHIDSZewc5tMyk5Ng-14">
          <mxGeometry relative="1" as="geometry" />
        </mxCell>
        <mxCell id="tKZLHIDSZewc5tMyk5Ng-13" value="更新页面时，对于虚拟dom无论页面多大，都只会更新变化内容。对于innerHtml来说页面越大性能消耗越大。" style="rounded=0;whiteSpace=wrap;html=1;align=left;verticalAlign=top;" vertex="1" parent="1">
          <mxGeometry x="260" y="524" width="120" height="210" as="geometry" />
        </mxCell>
        <mxCell id="tKZLHIDSZewc5tMyk5Ng-14" value="&lt;img height=&quot;164&quot; width=&quot;520&quot; src=&quot;data:image/png;base64,iVBORw0KGgoAAAANSUhEUgAAAmYAAADCCAYAAADjPg5bAAAAAXNSR0IArs4c6QAAAARnQU1BAACxjwv8YQUAAAAJcEhZcwAADsMAAA7DAcdvqGQAAE6oSURBVHhe7d0FvG5F9f9xFaS7WxqkEaSkS6Skuxvp7gZBKekO6e6SRpAG6QZJkZZQROA3f9/jXee/78M5l3sRuJtz1uf1mvPsmD17n+dZM/OdtWbv/b3SxWfluZM3Kxuf/kT5tN+WyqfPlj/e8GT5++f91oOPryjrjDtJWfuM+8tDDz000Om+U1cvE46/frn6437lfGN8VF6699pyyUWXlevveq6891m/zQPBx/fsXzY48P7S/yV+Xt68drf/bL+jvNdvS3/866ay2SSjlVUu+Ee/DcHn5fPO7+4//OOl28rxm8xexhji++V7Pxi7rHr+O/32DAqflY8/+sd//iZJkiRJ0htoCLNB5D9CZP+19yhXvNyN6hgAnz5+QTnyvIfLe4N22LfH56+Xq084tzz5Sb/1fnz2/OXlyNPv6V6U4ZP7ykl7HlVu++sg/GOfv10u237ZssFRfypvt/X7SJIkSZLkW+OrC7MkSZIkSZLkayWFWZIkSZIkSUtIYZYkSZIkSdISUpglSZIkSZK0hBRmSZIkSZIkLSGFWZIkSZIkSUtIYZYkSZIkSdISUpglSZIkSZK0hBRmSZIkSZIkLSGFWZIkSZIkSUtIYZYkSZIkSdISUpglSZIkSZK0hBRmSZIkSZIkLSGFWZIkSZIkSUtIYZYkSZIkSdISUpglSZIkSZK0hBRmSZIkSZIkLSGFWZIkSZIkSUtIYZYkSZIkSdISUpglSZIkSZK0hBRmSZIkSZIkLSGFWZIkSZIkSUtotTD7/PPPyyOPPFJeeuml8tlnn/Xb+t/tf//73/vb1uSDDz6o6dNPP615/+///q/ccccdPeYPnnrqqfLJJ5/UZXmfffbZ8tZbb9XjkyRJkqSv8K9//ascccQRtQ9s9p3W77nnnh77xccff7y89tpr/dZKeeWVV8pll11W+2Lp3//+d/3sjpdffrmceuqp/db6Lq0WZoxh5ZVXLoceemhd/vjjj8tf//rXujzccMOV9957r1/O/8JQ/ODHHntsmX322avIIs7kH3XUUauhKeP888+v2yO/ZHmttdYqu+66a83PeDbZZJOy++67d+2PzyRJkiTpzegjxxprrPLMM8/U/vDpp58uTzzxRLnqqqvKkksu+YW+0Lr+dZZZZilHH3107Uf1mbfccktZYoklanl333137c9t/8c//lGuu+668oc//KFcf/31NZ100kllqKGGKldccUV/2y1ztvSV/rf1woxQOuyww+rynXfeWeacc876A48wwghf+JH82IxniimmqAZE7fuBGdXoo49eTjvttDLXXHOVX/7yl+XNN9+sxzO6Pffcs+y1115l7bXXLgsvvHBdl0YeeeSy5ZZbdu3/8MMP6zmSJEmSpDejf5x++unLQw89VP75z3+Wbbfdthx++OFVmK2wwgrd9r877rhjWW+99cpHH31UFlxwwfLAAw+Um266qcw888xlxRVXLHPMMUd1jMjLybLHHnuUvffeu+yzzz5dSV8rNbfrg3nTUpgNZqjpE088sQqz+eefvxrEMcccU37+85+Xs846q3rMzj777Jqobj/03/72t2oABx54YA2B2jf++OOXRx99tIw22mhlhx12qOHKd955p4ZCCbznn3++/P73v6+q/IYbbijnnXdeGWOMMbrWpWuvvbaKQ8aWwixJkiTprRA/+j994QwzzFCdIaYCLbDAAmWNNdYoyy+/fJlqqqnK9ttvX7bbbrty++23V+eH/JwZxx9/fO175Z1uuunKOeecU6addtpahnwcLPpgy86lr19kkUWqU6Qzrb766tUpE9fVV2itMHv33Xfrj7nbbrtVceYHXm211crGG29cjjrqqDLssMNWdymxRpj50QgzRrThhhtWT5eQpvwnn3xyDWWGMRB8QqSWpUsvvbS6UCWKf8YZZ+xalxga4yPK+pJxJEmSJH0L/Zw+b999960eM06RNddcs4w55pjlT3/6Uw1FEmmWJf2uY/SRO+20U+2XL7744irE9ttvv+r4mHXWWeu8NGmeeeapIi4EF4eHkKnPZhKhkrcv9rmtFWbcn9ylRBlDuPLKK8sEE0xQjcAP2l0o03ahy9/97nc1jCmdcMIJNe7NYPzI0rzzzlvj3jxmEq+YMCcRttBCC5V11123TkC0TbL84IMP9jtLkiRJkvRO9KubbrppufDCC6swM5k/xBmuueaaHkOZ66+/fllnnXW6kj6VR0wokrNEEr4UGg3sj765M6200kpdAq4v0VphRnETRDxmwojmhJ1xxhn1x/dDjTTSSHVZIq4YibTccsuVnXfeuSpyomrssceu+RmJyf/y8pLZJv9BBx1Ufv3rX3clIc8tttiiv22Rrr766nq+JEmSJOmN6BdFlV588cUqzJ577rn6ZIT777+/OkaEKZdeeuny+uuv16RfdYy+kcPEPG9Thg455JCywQYblLvuuqt+6nf1vyJX0f/q0w844IBu+9tIpiadeeaZXf18X6C1wswPJ4Uws8zLZc6YNOSQQ3YtC236wSTx79lmm63eBfKLX/yijDPOONVgRhlllKrSL7nkknrHpomH8iuTl01adNFFqwFZ5qGLFPs9PiOFWZIkSdJb0S8SQfo6wsw8bP0vr9ckk0xS+9QRRxyxTDzxxHWdEHOMPKYYRb9srrZpRTfffHPtj3neVl111drPKtsxSy21VHWERD/b7HMvv/zy+qn/n2+++Wr5jukLtFaYwY8QwswPSVhR256jwjAsv/322113S8pPmFHYN954Y717hMfMPp4wgo3SF7qk3gP7L7roojoPjXqnzptJzNy5kiRJkqQvoD9tCjOPn7JN5MgdlvpN2/WltkscIPpkideNMOP8INgWW2yxGto0f8xx2Gqrreo2ZbjRYO65565PTvjZz35WBeAbb7xR7rvvvirMlN9X+E4Js/jxLcccs1iPZcLMTQN+WD9whDLdLeJ2W3kZmGS7kQHxNfnkk5c//vGPVYS5aYBBuj3Ysm3u4kySJEmSvoD+NIRZs48lzPSzzW2S9eGHH75LWE0zzTQ1AsVjJnqlv5VHX6r/tRzCzPEiWW4OuPfee+vzzsYbb7wa2Uph1jL8cCHMIr4cBtAUZs3EYExODAOgukOYhbIX815llVXqA2o9RJZLlpvVfnnlYUi33nprXQ63bpwjSZIkSXoz+rwQZiJG+tP333+/Rpc8C9S6xAOmX5RfJMunxOERwoy3LISZ0OXBBx9c+1U3C4THzMPct9566/6SpzPorwkzx/aV/rfVwswP5zkmhJmJh+6mDE+YOzR9hjp356UfjTDz3DE/ogfGTjnllPVHd7clMbb55pvX56Ip06RFNxiY0OjmgMUXX7y6aCVq3S3BlhmV57a4NTiFWZIkSdLb0T8KQRJm+kn9Y3fJkxP0i1I4TDw7dNxxx61Tg0SqlllmmXqn52abbVbnlb366qs1H8HlcVbdYT/vmb6YgAvnTF+g1cKMwvZwOoIo1Db8OJ3L8empwjFJ352dnuzfzNNMtkUSE/d+L4n7VIrl2B7iL0mSJEl6M/pc0SePs4j+ErHc7EdjOZ4paj64mwIiAtVTfvPFld8dkeeFF17oOqav0PpQJpUcocQvww8Xqlr+pphLkiRJkiRpO60WZkmSJEmSJH2JFGZJkiRJkiQtIYVZkiRJkiRJS0hhliRJkiRJ0hJSmCVJkiRJkrSEFGZJkiRJkgx24hEZkfoqKcySJEmSJBnsxLPTvP/acl8lhVmSJEmSJIMdzx31zszJJpusXHjhhfWtPfFM0r5ECrMkSZIkSVrBbLPNVoYYYoiaiLQ777wzhVlbOOWUUzJlypQpU6ZMfSjxln3ve9/rSj/84Q/ru6y9szM8aL2d1gqz5g+TKVOmTJkyZer96fvf//4X1nnPhhpqqLLnnnvW92v2dlKYZcqUKVOmTJlanyaeeOJyxRVX9FMJvZfWCrOJJpooU6ZMmTJlytSH0jDDDNOfGPvBD35QRh999LL77ruX999/v088RqO1wqzzeSaZMmXKlClTpt6b4q7MCGcOPfTQZb311isvvPBCvQFAnr5Aa4VZkiRJkiR9C3dlmvC/wAILlLvuuqtO+M+7MpMkSZIkSb5lCLA111yzXHzxxXWZBy28aX2JFGZJkiRJkgx2CDEesk8//bTPecmapDBLkiRJkiRpCSnMkiRJkiRJWkIKsyRJkiRJkpaQwixJkiRJkqQlpDBLkiRJkiRpCSnMkiRJkiRJWkIKsyRJkiRJkpaQwixJkiRJkqQlpDBLkiRJkiRpCSnMkiRJkiRJWkIKsyRJkiRJkpaQwixJkiRJkqQlpDBLkiRJkiRpCSnMkiRJkiRJWkIKsyRJkiRJkpaQwixJkiRJkqQlpDBLkiRJkiRpCSnMkiRJkiRJWkIKsyRJkiRJkpaQwixJkiRJkqQlpDBLkiRJkiRpCSnMkiRJkiRJWkIKsyRJkiRJkpaQwixJkiRJkqQlpDBLkiRJkiRpCSnMkiRJkiRJWkIKsyRJkiRJkpaQwixJkiRJkqQlpDBLkiRJkiRpCSnMkiRJkiRJWkIKs17I559/Xj799NPy2Weflf/7v//rt/W/222zzzIs/+Uvfykvv/xy3RepeVwT2+3vieY5mmXYFtfVU9lJe/Bb3XPPPeUPf/hDXfabRWraT2D7u+++W5555pn+7KMzv31hC/YlyeCGLXba+IBS5A9sY9M+A/uzrUu+Kq0WZlERIiVfju/po48+Kuutt17561//2l8n+Y9//KMMM8ww5bLLLutqSDQee+21V/n1r39dlx23xx57dDVUnch3xBFH1OX4XZrJOW6//fay//771+uwDf/85z/LlltuWd54440ey24Tzf+pmfoKfqPNNtus/OxnPyt33HFHufvuu2u66667ym233VY++OCDfjn/i+/mjDPOKLPNNluXbUXaeeedy/3331+XX3zxxbLxxhvXgYD17ojjOontA7O/cz22oaftQXN7T3n6CvH/d6behMHEcccdV44//viBSuqDtjLwfTz33HP9CTHt34wzzvg/fVfxXUf6Nuk8d09pUPmqxw9q/u86rRZmGviPP/64vP322/0JjKR7GO57771XFltssfLzn/+8vP/++/01IJYnm2yycvnll9fvc9llly1rrrlmmWmmmcoss8xSl+2ffvrpy1prrVV+9atf9Tvy/7PBBhuU7bffvi4rg6iTd5FFFqnHjTTSSGWMMcYoCyywQLnwwgu7fje/4xZbbFE77r/97W+t/z19V5988kl5/PHH6/dw+OGH96mGAYTZhBNOWOabb74y//zzdyW/LYHdydlnn11mnXXWLm8BDxpxvtxyy5Wll166/Pvf/y4PPfRQ+d73vleeeOKJHr9PtkHMscdmcj3O8eGHH37BfpT1+uuvlwMPPLDLFhdaaKHaQb722mv91QP5okwewU5c52677Vb377fffv0d29fwWxpUXX/99eWXv/xll8DuTVx88cXlBz/4QbXzpq3PMccc/dl9JCKuaX++oymnnLIOONgO9tlnnzL11FPX5a+KcxCB7FBU49vC7+v/ePbZZ8tOO+1U5plnnioyF1988fK73/2u1mv7v4od+K4cu91225VLLrmk39YvRx18/vnna3vSF2i1MPMj7rrrrmW44YarXpi2wCD//ve/V4ERxulaGc2rr75aK5T9PFbdJSJFfscTT5ZjPTwR1nUgyhmYCiCP8xI/Sy65ZPnXv/5V15UDy9KPf/zjLmH28MMPl6effrp6snbcccc6ciTWCBHbn3zyyXpsXJ9zhDCL82m8HO/3MWpUaeO88QnLKpfzuL5owNpEXLNr41VcaqmlypBDDlmGHXbYcuyxxw7U7/BdhR1effXVNV111VX10/9PUMV67LvyyivrJ5EFNkvEnnXWWVWYxXeoMT/yyCPLTTfdVH74wx+We++9d6CF2QwzzFDGGmus8otf/KIrGTwoh7hXN8K2fP75z38uP/rRj8rII49cVllllSrsfI4wwghl/PHHr2FZ5TonO/3+979fhhhiiGrvsT0g5PzmOut555236zy9Hd9B1AGJAD7qqKPKtNNOW7+rUUcdtbYJva0eEGbsIdrl+A6WWGKJctBBB9X/N5LtkQe2aUfZyh//+McuWwph1jxWimMtfxnKOuecc+q1se9vC9fmdzYom2iiieqAKAYqww8/fB2YaecH5n/oxP+ubVh//fXrIGtg0W44tz6yL9B6jxmDIMwYfVtgXMJ9GqwYTbvWc889t1ZQ2w444IDaAXWXhIR0hKOMMkrZeuuta36ibtxxx63eJ9hmFGbEHo3AgHD+Bx98sEwxxRTlrbfe+oLwIYh22WWX2tmtuOKKdXSn4T3vvPPqtfI0WN59993rOc8///za+UHZp512WhXJM888c5lrrrnq8i233FJDn0JYA1NJ/R9G30advqu28c4775QTTjih/o8EGRG75557VsHq+/wqDdF3hUcffbT+zyussEJZfvnl6yf7m2qqqepyZ+IZPfHEE+uxhxxySLWr0UcfvQw99NBlvPHGK1dccUX12hJmBgkLLrhg9ZwNjDCznTAj4NmedUmduPbaa+u5wwMHXmLn5O144YUXqki0z6fzTD755LWTefPNN2s5Rt6ugejS2NverGPsWd1kB8rs6Tp7G/5P3xvhusMOO5QJJpig2sTcc89dQ3jqh++0t30fIczCXi644ILa/o055pjlN7/5TV2PdMMNN/RnK+xTXyCvYyLfyiuvXG2ueax03XXXDXRbIg9hxlZjEPRt4LybbLJJrdM8465X3fN54403VpGuzn8VO/DdKSfKHFhuvfXW+j2kMBvM+NEYvcRr1N2PGMbCQDp/aNus+4z9ympiu8oY5UjNSmc59kVZPiUhPB135PcZoxvLOiPiS+I52Gqrrer/Yd3xDN58L14AeW+++ebaSQgX2O9adShCMc77Zci/6qqr1hGu83cec8wxx9RGRqXi9TrssMOqp8O6jpYglCLEw2NgLhGUx+186KGHlrHHHruGiCzbT+AJnRKYkv8zlrnCm9+5a5I0TrPPPvsXvu/BgesjQAnXccYZp0ucXHPNNfV3iWvu/D57G4899lj939le1AUj5dVWW612CgTR6aefXhtG4d2hhhqqK7wStn7yySdXMcPO1asQZr47Il4aFGEmdBK23EzCKc7vml3vb3/72+pJIy79np35jf7VtahLIcwMQPzPRKTzSP5vAxfCzwCEeHNMb8f3dt9991VB4bsistVh32nzu+yN30VTmLElgjTaw2a7OM0009RoQvM74DnSJk4yySQ1fB7JNg6F5jbJoIfNDsz3KE9TmFlnn7xnPMIRWt1www1riNn1/+lPf6q/G+9fwK6JQu2/PJK6uNFGG9XjecC0f+pF1Dd11/XKaz2S82+77bZd9ZrdGGyfeuqp1cOuPBEVbar/U9vgepxPndK2un51T5sC/YR+Qz3dfPPN6/UIdboeZRhsrbTSSrWv8r/6Tno7rRVmDO2nP/1pV+ouHq2BNqq238jWpPSYcC4xNvNN7CcejIT90LDfSJur2gRnDfDBBx9cDS+O1/Hsvffe1aCET5Sz7rrr1jKawkxenyHMrDf5yU9+Uq+luV0FEnpR2XV0jHfhhReuHgrXoLwQZgODYzQGrtmxnahAQpg8epdeemnNr/Iydt+tSd3SnXfeWa9NwxxeSuVJOmUdmUrjeJWWMFOJzSsz94LHScXUuMdE/04cx0X+yiuvdLv/28T34v/3f/k9eB1dn/9P6iuwwQg3CsHwfEUiooX8jKJ13i+99FK1BY1uE6EJAw3fqe9u0UUXrQ04/M62hzBzvs56Etgewqwzj/Wnnnqq2u1JJ51Uz6MhF1JXfndlqq/qr3pufwgzXiD1ntc3bJyoFA5Vdl8SZr4jv6964Hs3r9c2yffSm7+DpjDTBwhhsu1mclPTpptuWqeKwPfhe9E/CJeH19V2SShT/xDrkcLOLH8Z8nQKM9EWdVId9XvpjwhJHl431qgbBi3a+jineiE/8eP3POWUU+rvrD4oQ8hfmFrfY79jRFDUMf+vuqqeKafTJixzCGg7OBXWWGON2g/FAM13p88hXPWj+jjTeUR2iDOYR+d/1HboD12TQbL2WN5HHnmkTDfddLUcfWkc15tprTAzz+PMM8+sifdGQ9mJxtvcE3l4gDSoKgqjgcqm0f39739fhRRjFK6DSmhSIwPhZZIY1DbbbFONkNHxEKgEylSG80RnoDzGrkJy8QsfCu0MrDDjEubqNvIhDnnVCE3Xw5j9D4MizFQQIZ6oQJ34f3kCVACdGJEalcYohNiKZESksWmGj10P0RUNt7szHa9TtJ0r32/mf/Rd+Z87v4fAdo2WhqSnPN8WvjeV3yRXv79GjQgxj8pIsK8Qwkx4m0dTR8A7wDb8zr4ntmV0y2aI+E4IM427+SM6hqYwC5SrwSeOBmQfAxJmbNnvpE6xdYMI19kT8vD+jTjiiPX4EGbmDe677751CoEy2bh5dDwd5or2NWH2wAMP1E5WezvaaKPVTpl3w77e/B10CjP1gFBpJt8HuwhhxlZ4iYXotR2dfB2T/33nncJMuQZKzg22baqFOmWOpzpqP8EW/Zg5cOqLqIy6zPvEE24//L7xHcSASTRF3+l/1uabKuAYfWDTGyfEqGyDW9+fMnlZ9UW8dNHHEH/2R55m38YR4H/UXijb9fCeGezLY908Vf8jT1xvtsWgtcLMlx8/QIxgOzHHyxwgMFBeJ9uawsxcJuUwCN4z4gS8RkKH5lM41jHuIlQJedIcwz0rT/NaYpkwY3ASo3IuhjOwwkzYxyjC3U6TTjppHS1w9ypPpXA9gyLM/H++p5jA2glPGvFkFGLengnRXMSu2bUQIpKwjonvvoemx0y5OkudmFGPCmskoxEg8jRQhKxKZ2SpU+/uOuD7boswi99T8ruzM7+XxohINufOjRDRyPVWNMj+Z7+Z/9OnusNOwtsksVXCNb4Pn0bpOjRz0tiN+ScEXoQyNaw84PL6JJAG9H3aPiBh5lidgXlQljXgPLc9wd6ESHQWjm96zHRa6oDOQR0i8HjGXXNfEmb+x0g8ouaj8mqzCd+DqRC8aAP63b6rECXaXV4x4T4hueb3IakPbKjpMWsmwoHIj6Q95PVpblMXemoTu0O53YUyJfYpjEqUmf/r+gkzedRFA+uYE6jv4QRwbnWhWYaohjrA+eA8Icwk+5XPaUFYGQA5D++VAZr92kd1NdqNSAa7Pp1fudpV57ZN3u6EmQFh5HF9Qq0G/tb1jfKkMGsRAyPM/Ni8ZpR9GD+RxEMWxmBuFVEB4TbuXypdByLNOeectZHW0TgmhFl3EGa8AwxQWIe3SChvYIWZzovniuDREWgQCBXH69TkHdRQpkddGK3E/w/lGLUI5WpUCCKi1OMfhBLNKZHsV+kIV+tGVVFJVRaiS6dsvgWvmtEUF7RHbZgQ6//hqlYRNUju2uv8HgINoErue2te6+BGQyP5vlw/17yOiQdBx9TT/9MbYDc8BX5rv4lEkPLs+r813sIotvuNfcoradQ1oMR4iBrHqFOmF/Ck8Th4dpkRN8GrjJ6+T9sHJMzYrXrKhp3LXBidqWvqrkx5hKfUV3lCmPH02ud6eMpd08QTT1w92P6vviTMmviOfC8GiOze9+v7Jrp5MuzvTVx00UW1XdSGmmNm0nv0CVI8fohtmGvWnU0SR9pO7aakb9Jvxbq0+uqrV7vqDmVIvtv4fq13CjNTddiq38RAQ/vkPPLEXY6EtUiPdW2tdlvbH+UTN9px/YUBtt82ytDmQz7Xyg7i07kN1vSb/hfb9Kn6UGUHzf/Dd6pcTo/m/9WdMFMv5bHfOfWxQpvWc/J/CxkYYebH01Dz6FhGCLPAaDiEmdE2j5WOo5mEE40MlfFlwizmEMAnox1YYWZUQ8gw7hi96HAY31cRZo5X+dwh1Kz8lnkFleX/4l6Px2UIU0jmVRlt+X8sN7frrIhOgldFJ8iIWuKFO13FJmRVdp4Q18srZ35B5/cQhIfN/x2VtW24Lv97TEhlFz39P70BHYAGXMOsnhgw8KQK9/u/3YW79tpr1++FnRv9+/3AFnxX7MPjMuSXTDMw54RHy7wWeYRY4nEpPX2ftg9ImBkk6JCMopVj7gzh13l3ZcDu2WZM3G4KM/XAdgMM8yuV69Ea8vVVYdZEu6Jz5xFaZpll6hzD3vZ9GFjwCrMlg2N25camCJ+Z02SdOOjuOW7W2bbvKugulKn8Zp4m0d6YDqMuQrmdwoytqk/6PfXN4Fh/wW5DmDkPMWmALerhf4jj2TvPN++26ShCkNp5c0udR/0nfgyc46HjgeOtu7va8Za1jdFGBM7B08Zu/E/KJX4jj8/uhFmIfvv9D8o2V816CrMWotElunQATeP+X4QZt6lwCENUnmN8xrL0TQkzhksYEmZhiBJh5nhCynbGq1Fo5nGs1IltOhQVKkJviOOMdpTTFGY6HV47nkITSHlMjIZ0SLZJ8Z3zRvpuzB+Kyf+8KUJdcV2EoTKMsuN7bOL83O9c4bx2cW1tJK6t+d239Vq/DjTChBTRQmyba9UpzNZZZ51qD8LuwgydNtYUZvYZ7apjRBl70DnwProxJDxx3WE7jwAvV6ft8wbwfLkGjb7tOoHwfhsQOLe8zsnuCUF2GR7gpjBTvrvDdF46svCqyZfC7P//tpF8N70FNiLxdPEg+f/YjscHsZEQFbw9RLuBu22OadL8foLuhFlnnia+V2ULOaqHrkMyIGSb8aYMA2SCxj727ZP9us4QZvJxZBiMGEhrb9Vb5zDIVp5pK46PMkRslBF1xDHqr+kd9sd3RWwRS/pR5elfnYegjXzm5uq7hMMHRZi54SD+L+fRBnhGpvwhzPSRnd9/b+Q7Icy4TQkHIxuGxgjQXSgzhJk0IGHmxxWqEnbjGubCJp48iyZozjFrYj2EWTRUPo1unDO2QV7CjBCL7QzPRErCrFl2CDOjHHmFWIx8VBrXJ1k2QupEfuWaP+ZGAiFW25rlWw5hZl9UNvPPeA+JJR1TeBKkZuUF1zWPmXXzDvwfyrJu4rBK7zficXF8nN+nPOHuj/KSwYvfxe/nNne2Fb+r3yiEmf0aWR4z9YMIYqvsollGPGDWMhslbJShTIMGDT1xp+7wqpoDE/bRhN2wYfWrafu8BQYCBmpG+XF++XlhiUCeD5P6DbxMLTDwIMp0VK7D+Qx8NPLmmDnWYEGYTl1n32G3Icz8P0nvw+9KeLBnniq/OXslNLTBxIz2mKgwcV5foW0jNsImfHZnwz1N/pc3UhPlsGehUt4vtmvyvD6ANzds0qOKhCCJMG+tECExGHedbrqK6xHBEM40yDIPTNm2EzzEH6+Z9t6UDfXKgEmdMHhSBuHmWP8DcWgutHMa/Aih+j6UZyBEZBFy6r/5ejzd5riZh+Y7VG6EMh3jM5wOCGGm/qnv6q5BmfMYdDnGA8zlEWky7aK3850QZlS+CeXmkfDWMDpwdTIGMDxuWSOfMADCp3ln4dFHH12NFAxdKI4xC7co2znMownMnSIklNVE+WeeeWbNH52DT8YaXrDAeYRaiDzL0EHoaEwIbZbNTet4k+pVfkLSdTWT/RqT7lCW0YpwkY7NnaLNa7G/Kcx0nib6q/zuLHJdKoCbBFR4IaBOQph5zpeKq1IZzalIhLKKLgzlOgm++H5clzz+B+eN7cnghU36zYkXDSkbMGrWIOqsCBPbCDOiSrhQOMs2KcogdtzmThg1f3MeKwKITalLxJjG3GhYed3ZgfLcqGMw1kzmr6lLrjPqUsC2jaoNZIgsjbiGXTm8c83zsEsT27Udtvs/dE7EorzRfgjdee5U57mS3oHf1dywEADmFhI5BI/2l50SSYQZG3HXqvln+p2wfWF1DoPOZM6lu7w7txuUEB/Ndr+JPoD4IZQMNAyYmm+tIErccGUAbL92nhgyB45X23XLJ7+BlHlx5ocGbJs3XChSGcSQOk54EVcGOMqQbPN/EFm+B+195G2ex3enXVeWdoSQFAaWxwBdXSP0nFtS55TDA4kQZuYpc6w4lwGVuuh7dh4Cz/QX+cK50pv5TgizaCibKbZLzeVm3tgXNLfFcucxUpPY1yTyNfc112MbYr2Z13Kkzryxrbm/u9QdtjtGheC9i8oTqCQqGTGmEzNy4iFrVhoVjZg130iF6nwuGrFImBkVWdYwaYA0Jh4xIC8hzdOibB0xVEYjwLjjtFlmMvjwe7vLUqNnNK3jIaJ88hxo/K1rdIUgLcd+j6CA35ZXm8APDxmUJ4zI5ngQwosqsUF5LXcSdtxJ2L59TbtGcx/hT0D6DFtrlhf5IjWPba43tyW9D3bLw2sKBtvUnvHWsF+RFnO52L+BctitQUl4i8ATJARH1A1MkldEIo7vJGxOu2lg3JM9su/YH3may7Eey0Gs+x+VYZDfzBtlRLKNQJXXNXXuax6jLPm629fTNoQwM01BmxFlRIrj/F72xaNCejPfCWGWDBqMOTrHJrYRXYybaOM5MxJpdo6OVQFUMh5Dy7YFRkLK0JAJAWkceER4R+RVgZTHU6IRi7J92t9ZXjJ48VtoeHkD/DaEs9/uyxLRoxGNMvz+bImNKSe2G63HnMemfVhmg03bS5JvE7bH3j0ygj02k23C3yakxwA3xIHPgI2z7dj/ZUn+zgFzXyceMEuY+X6SFGZJkiRJkgwmCDNhVdGZHKj9lxRmSZIkSZIMFnjeeSZ53NOT+F9SmCVJkiRJkrSEFGZJkiRJkiQtIYVZkiRJkiRJS0hhliRJkiRJ0hJSmCVJkiRJkrSEFGZJkiRJkiQtIYVZkiRJkiRJS0hhliRJkiRJ0hJSmCVJkiRJkrSEFGZJkiRJkiQtIYVZkiRJknyLeBm6l59/GV5RJO+gvkOy+XL1L0PeeHl7vkS8HaQwS5KkRzTsGmvvsxtQI2+fJN+gNO6O0en885//HGD5wSeffFIeeeSRruvpLg2oE3NtkeRNksHB3//+93L99dcP0A5tf/zxx8utt97alY9t+2ymzjIsE1l/+MMfyl//+tf+8jbzBe+++27Zdttt6zUpP8prJtukTmxTd2+44Yby4Ycf9tua/K+kMEuSpEeMuv/4xz+WmWeeuXz88cf9tn4Rjfcll1xSVlpppSqeBhYNu3J/+tOflmuvvbbf1p6Rd5RRRul64fFVV11Vjj322HLcccfVZPmss86q+7pDx/PLX/6ynHHGGd12NEnybfDAAw+UUUcdtTz88MM92qG6x1Z33333ctddd9V0//33l9dee6386U9/KnfffXe58847yyuvvNKfvTvOS8FHH330mo9wUl98dlc35XctPgm67bffvtbHZlp++eXrvk5c+5tvvlmGHXbYes7k6yGFWZIkPaLB15gvuOCCZccdd6yNdyfEjtH2dNNNV6addtoy/fTTl7nnnrvMNddc5Z577qmizvrss89edt11165OxHHKNlrXsK+xxhplzTXXrGnttdcuf/nLX2rDL0WYxbEjjzxyPc62zTbbrKywwgplm222qWnDDTcs00wzTY/CTBlLLLFEufnmm3vMkyTfNGx3hx12KPPOO2+PA5kLL7yw1qXVV1+9TDTRRNW+d9ttt3LyySeXn/zkJ3VdnTr00EP7s+W33367zDLLLGXOOecsCyywQE3yjzDCCLVOBVGvpNFGG60OetTvvfbaq5x00knVMy3deOONZcopp6z5O4kyxh9//PLOO+/025r8r6Qw+w+MmoHFKHxAqESD2qDLLynfeQZ0vH0fffRRdUFH3u7SgMqJ/QNCnvfee6/mayaVM/7HZkr6Duyg+dtb1zgTXe+//35/20Fg8VJtsskmdVRupG4/WzKqn2eeeWqeCy64oAqusDWdwMEHH1w7jccee6w899xzNfEQLL300rXBd1zk5R2Thh9++HLZZZdV0bfnnnvWa4treumll8pUU01Vl4M4n2R7CLPO7UnyTRC22bQ3tv3qq69WW1dPYn/k1QarK/vvv3857LDDqkC78sory+WXX16OP/74OiCRz/H2R7lvvfVWrW8EnHPIow5FWepR8zzrr79+9YYNM8wwZbnllivHHHNMFWbNMOvLL79chZnlOE/sU/brr79ehhxyyCrMotzI6zMZdFKY/QfG9bvf/a5sueWW1ZgHhBG/ijEoME4dmgojLDQgY2XMN910U/nZz35WK6d08cUX104t0vnnn187PHm748UXX6wjmAGhA1XZuMKdgxBUqU899dSy1lprdXWI9llO+g7qgEGERpy9nnLKKdUONLy2ScIXPiP/rLPOWsYcc8wyzjjj1EZ67LHHrstCi+yezfMA6CDkN6r/1a9+VX70ox+V22+/vTz99NM1/fnPf67HXXPNNeWZZ56pYRr5nYuH4IADDqjCbJdddqnhSMLs97//fc0r3XbbbeXHP/5xf3XMteuobrnllmrTIczMrSEmY4CSJN8E2k82eOmll1ZbO/HEE8sqq6zSX7vK46ztZYds1zpP8Iorrlg9zgYbpglYP/roo8vmm29ejwthpnxz0XjW1MWdd9651hFJvRlqqKHKdtttV7efeeaZ9RzOJdQpNCqUaXD06KOP1jq16qqr1rySc8VgR13klR5vvPG66vi4445bfvCDH9Rl25rb9TPJoJPC7D+oIM8//3wd6WuwuxMijPjZZ5+tLl8x9/nmm68mDTuhFOvzzz9/7VQCZUnCNebGEH9bbbVV2XrrresnQRTnY/SSeQThZdAh6WgivCPZt/HGG9eKIskXFTrWRxpppK71Zh5Y/s1vflM9FUJUKrLKpuEg1jbaaKO6j9dCCIoXIuk7EE0a1ieeeKIcfvjh5ec//3m1nUhPPfVUmWCCCbrsgn198MEHVegYbRsUGOgYaZsXI6xCcB1yyCHVftm0AcFqq61Ww5c6kxlmmKGmGWecsStNNtlktTNqnlsSyiQcdUY6psknn7zreF69TmHmuoRxYjATwszxlsPjkCTfBNpbg+Uf/vCHtQ854ogjyqKLLtqfzb3xxhtlwgknrPM09QH2+eRVY8/SMsssUyf0C2XONNNMtf+IUKb8bogxCZ8AW3nllWsdVH8lNm5dv0HwyR/nUJf0fQZGro8w45FzjGP33nvvMvXUU9c65RiDJY4GdZ6AFO4cYoghyoMPPli3RTLnzP+eDDp9VpiFYJFCEO20005dIxkG2Gzcra+33np1tEN4ES0MmmGqGEYmGnpegNNOO62rbGUxcBXpjjvuqOGX++67r2yxxRZl2WWXrZ1UGK/RlFG943VMRjM6P2JP2VEeD4EKBttUAKMobmjpqKOOql6FWI9tKhDc6WMejgrmHMSXkZL/4dxzz63fxRVXXFEFm+vzvyd9Bw2sEbTGVWO+2GKL9dvz33rAJjTcRA1bYYM+hSWNrIke4l5noqGXd9NNN+2qG/IqQzKa51VThrKNsGOZDRJm1iMZyBh0LLLIIuW8886rQrAzlBmdSCQ2baARthzCzHWok7x2pg/ImyRfN9psNjrxxBPXdvzII4+sg52mvbHLs88+u4ozAxr7hOvZspta2C6Ps4n5Qof33ntvTfqTmPwvORcnQNQpfYq2X7jUOa6++uoqzOyzzktmkC6UqR9QnjpFACpLPvPSOqcHBMrQRhjIqfPydJcvGTT6rDBjdCqJxvmiiy6qI3gdkVEH7NNYByrLFFNMUUfkk0wySfV+6XjE/nkCjNwZpE4ohBnPg0riOKJI+Mc2nRWvghG89bjNWIUT7xdKVEF5yQgnnri//e1vNa8yVNQQZjjnnHOq29i5VFwjpqGHHrouR9L5EJVQyZ2ToPztb39bK6aJqDwX1nWwQkYmgEZnlvQdjMh5ZdWNTmEWsEfhDJ0MGzn99NPrHWRC/WxIYo8HHXRQtSfrRFCz0bYsT0wNIKqEQ2MQYj5ZeMycY5111qmCUaiUeLTN6F7oP1BPQ5ip4/IstdRS1dZhewgzy8oOr5n/N0m+btiheqB+sMeehJl92nr1xbK7lLXtBtFEk+kt6qVPSd9jqkEn2n99BMzZ1P/EPDZOhaYw44hQxwzk9X3OK+xv+oypLfocd472JMwcox80/43nmtDL/uJ/p88KM3NReIQYEc/VgQceWJfD+FQIYT6GahvvmHAnUcUNLTxjxG5doy9EaWQhVBPC7LrrrqueNUmHQ2wJATUTF7IwIqKyRCgzhKPKGscST47pFGbxv8Cn0E0TZYQwU6bGwoiM61ziXlexVMjY5jrkjXKT3g2b8HsbGAiT+N3ZRVOYsVF51AsjfHXCcZGGG264KnKExSMZ+OhI5I/6BcshzBxLLC255JL1vPaFMIt6YSBDEBoUqRu2GbzotIR5JNeqo4hjhFLlN48mztkpzHRW6pc6niRfN2ybjZp8r+50CjM2GHWK90t+2+w3nUAI1Law10gGIPJ3YiAuguIY88n0Fcp2DFs3Ty3KJ9jkizpl2XXqswxo1EefvGH2NbFuDlqERvVDpvlwHnTmTQaNPinMGCT3rkbcMmFmRNNEDN2IRL6oCDxqwjFuPzavjBEK0RgtGHlEMglTuSqD5M4XRstYo0JEcjdbMyxpv05DR0FMmWPQDGWqwLwT/4swEy51jBCPZJm4NKenuV3SmQrXJr0fdiOUyF6FPBDCLOxVHqNwHQIhwx6jEbbfYy+E/D1ao5l0IlFmoKwQZsrZYIMNatjdNdinHhjwWEbUJ3PMfDqfGxKINXN0JMs6Bse4LuJOiF75cExTmEn+DwIyO5Pkm4Ctsn03p7DDEGZslP3Zxv5EKMLWA9NUzN8SiTEJP5L1McYYo3qIg7BnYoxTgLfLjQOWOSLUDXXX4DvOLVluCjMp9jXzNLfLK0okPKuPijzq8BxzzFG9bbYlX40+J8wYi4ogLKLBtt6dMJMnbs0XhmSIOhyTKnVW7lTToTBOy5EYabNyKV9HR+QwbG5hE+yjoyB8wmNGDBJQvA5cx+aCOa9n3USnoTx3o3UKMzF+89Z0ZD7NGbAciadNxYdbrjUO3SX/m8pMgFoXysrn0/Rd2INOhB1G42wOCnETNhywTXbHSyVUHsk8F96sTmHmePuFQ5RpHqaJ+kb0kvkuzhvncW7rOpEQhc7ZXdIZNuthYF9TmCXJtwmbNNg351FEwk0x5hzz/BI1nTZLmEXoXt5I1ieddNL+hJlj2T0HgoiHeco8WrbtscceNdKiXX/hhReq7cuvDvEmG+yoi82+rLukLF43HnAhUjcMBMoz/UcfaSBmnlrn/5MMHH1SmGncGRWvl/WehBkj3Geffar6Z2A6BvNkRhxxxOp9CmM1J4foMSnZ3TfNBt9yU5gRRcIzIbSawsw5TfDkcYu7Mm0zKll33XVrOcQhoUaYKVsSUhVaVdE9UdonQWk5kvLcjg3/F7Hpf/GoAp+RrPMI8qBZJjTjWpO+h5G8UAqxLulQjNR5bdlRwA7VER4z+WIejIfMCuMI5bP9sFli38DGXc3mW7LneHafAYo5aeZNCqnohKBeCK0QZnGnpUFMd0lHo+4EyuXlU4fUJ/PSstNIvm3YnButOuuHNl07rW40CWFGUPGSRbKuHhJpAcHlobK2qzfmTTuf9tunttygnUDTH6kf+h+P0uAQ4KnuPE9nIsTUH1MdRFKadciyJDxqrqlrUZeTQadPCjPzwoT+4m6WmGMWnUbkYaiM13rA2IkeQk4ycV6yTJg1bxgAQ20KM3PQiDkjfuUSYh6dAefS2YWQCmHm8QQqaDOFZ04ZjpE3BJRtnaHM5n5l6hRN+CcShZMsRzLa4bGwzPsRxyV9D4MYntuwO3NeJDbHjgI2Z12DHHeVRZLXncRG0LFNuNETzc1Hk18eCcqReNrULWEYOK+bUtSPyNM8TzNFnQiiw3CzAA+z+mdbknybsDl1KtruSGyZzXbaJDtV/9hyM78kNNoUPspVx4T0LUf9CJThHOZCGwRZdjxnQuTv7jzNJB/PWvRf3RH/i3xZx74afXbyf8C4PPG4OflfMsFfp9EJYWbEbtIzg3YnmWTZSKRTmDF0sX0egl//+tf1WUsqg3OaK6BydXYgboMmzDorb2dyXPPYwL5OYdaJsglPolQ4NhoFyZ2hA/PewiRJkiRJvl5SmP1HxHDvmoO10EILlYUXXrgmoZCmmzjw+AqPovAcpWZ+yXaiK4STET9PmduXzRnzQM2464aXwHZizg0E3NC2mz+mbMlrMezvKbn9ujthxsUspDQgCDDHGj1xUVsmME0c5apOYZYkSZIk3z59XpiB6zfmWhFeknkAXLKdiLGbTE/88I6ZuCyZcCnuLuwYni7eMHe07bvvvnU7NzDPlH3h7hWSdJzn0dhm3puJ0I7lLo7yu0s8Xt0JM89DM5F0YIjrgHk7xKMJ/8pOkiRJkuTbJYVZkiRJkiRJS0hhliRJkiRJ0hJSmCVJkiRJkrSEFGZJkiRJkiQtIYVZkiRJkiRJS0hhliRJkiRJ0hJSmCVJkiRJkrSEFGZJkiRJ8g0RDxwfmBTPwIRlDyz3rMrY772x1j1Hs6fXInkpudePBfLI71ma3eX3DM54Gbr9zttMPWGft9r4dJyknFhPvjopzJIkSZLkG8IDvB9++OHyyCOPfGl66KGHqlCCh3xPPvnk9cHnxJiHinuxv7fEbLjhhvX9s909BN1baLzjOHCsh6Yry0PEO7n66qvLjDPOWJeVR8R5GPo222xTjjrqqLq9O+T58Y9/XN9QEyLOi9kvueSSbq8rGXhSmCVJkiTJNwSv1+yzz15++tOfltlmm63bNPzww5epp5665iPO4IXkSy+9dBVAvGNXXnllmX/++esbZ7wZ5rLLLqsvI7fc9FB5VaB3OsNxBJ7Pgw46qDz55JNdb6Ah2Aio5557rkw33XR12T7X88ADD5SNN964nH766bWcyAv7jj/++HLcccfV1wL+6le/qsveBT3qqKOWY489tq57HWF6zr4aKcySJOmPCEsMaopRc6xHqKW5TQpiX+wPLDu2czviGJ+RoozuyunM21PqPDZJvi7CNombpr1FIniIsksvvbQuy2f7yiuvXL1RBx98cPVcrbrqqmWKKaYoCyywQBlvvPHK9NNPX0XYgQceWPM//vjj5ZZbbik/+clPyjHHHFOXeepGGGGEeoy8Cy64YPnRj35UDjvssHoeee65557qTVtvvfXq+5155YhAonCXXXapeXjV4jV9N9xwQ70eHjtp++23r6KTiPOuZ9tOOumkKgRdVzLopDBLkqQ/ovP4sqTRNfL2aX3HHXcs5513Xt1m5L3UUkuVq666qpx66qm1o9DpyBdY33///euL85vbn3/++drpvPnmm19o2F988cXaiTiHY5xHuuaaa8qhhx7aX37LRx55ZNlvv/1q0lE4zntkl19++ZpWWGGFmi6++OIuj0CSfBOwP7Y76aSTlskmm6wuEzMEEmHGA8amJe9OnmGGGWoIkhft7rvvLiOOOGI54IADql0TUepa1Bu2e84555Tddtutlr/uuuvWZcJsqqmm6q9+EVveh+y8q6yySr0GHjPvdSa4hCcdO+uss1ZxZnnXXXetoVQ4zrWq2wScc6200kp1mYCT7FOPO+tvMnCkMEuSpD+EMsYZZ5wekxG1EbtPjTqxY17MxBNPXF+gb/3tt98u448/fp3T8tJLL5Vtt922CqjwBsCneSzCHjoO6zoYadNNNy1XXHFFXXZMoOyRRx65Tm62T2enQ1CGspodgWUjeKJN4jlQlusS0hEGMlHatfFKNI9Nkq+bnXbaqQ5E1BG2Zy7YzTffXG2yKczYocHMPPPMU0XSXnvtVdZcc80q5ni+CKuZZpqpLLfcctVbJfTpmBBfyr399ttr/TAZnzCLeidPCDPryiH+pp122jovzWBFXYA6GKHMuC71T3I8kej/mWSSScrmm29el22L7Z0h1mTg6XPCjKFEYmhNmvs6ae6L/c3lnmgeE3mby0nSNogs82I6k0nBQh0abyNookt4g+A67bTTqsC57777yhFHHFEFkRH+fPPNV9O8885b5phjjjLnnHPWToL9q3+OMV/FMrG1xBJL1LxSHCtUg3feeaceN9poo1UPnA5i7rnnrnNezGtpCjPX5TzyxLlCmE0wwQT1eNcsmSeTwiz5ptl5551r3Qh7XHzxxWuY0HKnMGO35pKpLzzH9957b/VcmfTvGPVk7733rsLOfsdJ7pKca665ytprr11FHNE23HDDddUpSSiTsOIBE9589tlnq8dMPT7kkEOqaER3wuzDDz+sYVDCUd3x/6hX6p9t8kv22eZGhWTQ6ZPCTOdy9NFH13ksTYyeGbKRhnxNGKV9OgeNO4y6VYwBoZPj1lXR4rjzzz+/686bJGkjOgKdQDOdfPLJ1Y7Nfdl333276ogGfpZZZimPPfZYFUcaZYJKPgLp8MMPr6N09Uqd0wEQbkTVhBNOWKaccsq6rC6NPfbYVQTKK5111lk1bAPeMaNxE4zNtxF+5LlzJxivgLKUE2LNtV5++eVlo402qtfP02ab0OkJJ5xQQz777LNPXY78SfJNQZjxcPFMudOS3XYnzCS2H/VG+J6XjReKvRJshBc7tqw+sd111lmnTgFQJ37729+WV199tdq/EKX6HGnPPfesYU/nQEwdgG2mIAhjqovCrZZ555xDXVdfJAMqXnJ1PrZ1JkIxGXT6pDAzwhh22GGrkRFLOhTGeeKJJ9Y7UVSUpjBjrLwFGnKiyrqkc9HoW3YHjYoCxytXGW+99VY1XpXRNuJvzDHHrJ/2yyslSZtwRxVxRRhJ5prwXLHhTmFmTgnvmLCL0MiFF15YRZARu4nCwhyrrbZaufHGG8v9999f60vYfYQyo06NNdZYtbNRtmQejTks8m6yySa1oxlllFGqiCPYjPhdkzJ436Iu2WbZ3DLnePTRR8sTTzxR3njjjXpNrkVneMopp9T1eCRBknxTEGZszgR8dsvW2R676/SY6TeGGmqoGnaX97bbbqvCzOR/xxuEmINmn0GFY8LmbXNXpmV116Ak6lOUL69lNIWZbU8//XS9kcD8M3daWhaWdFwcq67ylo0xxhh1KoH/I+qVT/VUnjhHMmj0KWEWhkn5jz766HUeDOMxcVEHQJhttdVW/eWFUb5OwBwBFYY7mDEzep3XMsssU7fxjDmG4f7mN78pyy67bE3cxEYhls3fEUpxjHWuY/mTpE2oD+GpYtNCl8IfljuFmRG70fkOO+xQLrrootoo77777tXufRqx82LtscceVQBFg62RJ6YkE/d5oI3SHcMzIKmbhJlzuPPLrf1Enzqpo3KdymsKM2VHkkfnEtuJSB2ba1EPib0tt9yy63EBSfJN0QxlsjUDefWBbXZ6zNi3uZnhDRNhYcuSY9WJsH0pjpNCmFnebLPNqmdrQOjL2H+zDClCmZ3bXY9wJmHoTlJ1SZ31yA/thGVTA+STPxl0+pQwI4B0HNddd10drYjFa+iFUjyLRcyfcFKB3GFmlA13dpn07DZgnoQll1yyCjExdHMAzKthhCZRRhjGKEZ8nQuaO5fXwCROy5I4Pk+dJzmrmEnSJkKYsU1Jgyu0oqHtFGbs3YjaZGWhS3XBIGXFFVesyzojx0ejLinfnDPeY4Mbt9ebKjDRRBNVz1yk1VdfvYZodFDqjQ6LMIvOyLwW9ZX4U57Bk+QcrlsoSChGJ8JzcO2111YvGgg93oC//OUvZZpppslOJPlGMYWmuyksbJm3uekx0zcQPCI47FRfxW6F8IUhDS44ESwTa/o2id3bR/CJDBl86OMGRAgz1xH1StInhjCLffoz9d/NAq+88krdBnl4stVT2+Iz+7avRp8TZkbhPGNcsFS/xlqI8tZbb60NuhG6W5UlFQk8ADoWtxIbIbjjRYOvwzEJkzAjxFQucwach2dNpSLIVCBzYHjNtthii64kDGoCdRpv0jYIp2GGGaZO7DUSthzPPuoUZrYZoAjZm2tmAEKYGfwQa+apxPwv5crvbjFiTt0wwNGIG8ioQ/ZH56CBN+VAHYnUFGbu3FQP1VuhU8tS7I9jhCx5Dwgz16r+GWyttdZa1fugo3HeJPmmYIdRZ2DZPMn111+/1jN9UNiskD+PlTAhMaQeEGCcAhwFzaRfcoxBiykHbo7hfTawMjdMXRgQwqSEmXOI4sQ8TXPVYv6nemwaD7Gnfpvas+iii9Y6Ff3Z0EMPXdf1eR5B4xjXlAw6fUqYMVAhRMKKMDPfJCZkGmlEKFPliAQhT5WnmQg04kv4xsiCQeqsGKIGnpGrXCZb8tDpBHjUbGsm543zJElbIKBibhd7Jp6E3dlrd8LM4EX4hP2zfR2KxtmyEKiBjbLUQZ/waf6XUIvtQjtrrLFG1/7ucM6YxB/n9xmhzO7qkm2EmQ7DwzSFM52Dd9xrcAzAeBVSmCXfJmxQnxADGTZtG3u1LIWoYpvs1mNfeqof8ijPtALHmgNt+cuEGacC0RfnU35nsj32q9OW//znP3+hP4vEWaHvyzr11ehzHjNzvwgyc8zcni+UoXEmsoRqzDmxLGwSRiU/l7DQprTddtvVymS07g4XMFRhTDBInRK3s+TuG6OPWG+mX/ziF3Wyc5K0CeE9jbxGuYlOo1OYqUdubhGK4ZH2+AmPozAIUo/M8SKa1CudQHiiNfJbb711lzBTZ4QmO8/ZxDljjpk6F9sGJMxCHPIuqNOOk4SIeAs8dsDT0nnmkiRJBjd9Sphp8DXMEnevDkUDzQMm1GK+i7vLLHvWC3ctCLMhhxyyhmokt+sTZib/C0fqbHRGwiIwz8YtzkIzGn7HeAKzbZF0fJFCACZJW4iRclPosFueYndwEVtht7xN5oYZ1JgrZt6kFxmrR0Ir6obPWHbXFzx+Y+aZZ66fwjgGL0IlAxJmnqMktEqYmf9CVKmLQjxClJZt48FzfQZe1r2k2TURZwQjIWYbD50BmWsTAk2SJBnc9ClhFuhsQpgZqUu26VQilGlbdDyEmY7HhH2Jl0wHIPRCyOlszj777P5G3MqQVwfglRpuJmgm4VOhoWbHlyRtRhhQ+M9ghEiL+qGuxKT/EHM33XRT9YbZZj1S5IGbaUwfUG8IPd4yZQ1ImLlTzUR9wszNAt4l2F3iBecp89xB1+sRHtYNlC644ILqybPufPCQzaeeeqouJ0mSDE76vDCzHIQwQ3QkIMxMfo5JkV5BER4zEyyjwxGiiRCLZyaZCC10atRuXpsOwXNoLLu5QOfRPH+StJmoE83U0/YvS192XE981XwDSs38SZIkg5s+J8w0vkb6wpGEmRG18Ih5Xt4GYCK/ZYnIAmFGjBldE13EFq8Zjxlhpjzb3Rnm9mUPmxWW8SwX886MzJ03HuQX1xDnHZCHIEmSJEmSvkOfFGbCMOaMEWZEltt+F1lkkfoZy1K8zDWEmWOFSYgu3jU3Api8745Mj8YwT4XQU66J08Ij5qq5bZinTUjTupsBrHuMgM8ICSVJkiRJ0rfpk8LMpH4TgXnErEuxL5ab8GrxgvGKmZwcb80flITutkdKkiRJkiTps6HMSAODUKO8cUNAhh6TJEmSJPkm6JOT/5MkSZIkSdpICrMkSZIkSZKWkMIsSZIkSb5hTKMxDSZSzC2O9U6a+S13d3xzuTua+3vKk7SPFGZJkiRJ8g3jrRnu+o/HLnmMErwu7KKLLqrLTcxn9mYYDzD3vmbCyrFeNO49lcrwxIB4HFN3HHDAAfVVZfKmMPvukMIsSZIvECNtKbAcN8F0NvLWmzfIwGekZjn/C86jk1FenLO7lJ1Q0jY8aHymmWaq9iutvfbadZtXAnpzTCeRx5tiPANTXvXL45e8wswrybz2zAvD2bsHmC+00EJlgQUW6Eoe8zTSSCOV+eefv7/tG264Ya0nSTtJYZYkyRfQ2O+///61wZdClN14443lzjvv/ILQkkdH4hVLXkUWx3jgsrdcWA4xJXlLhlc8daZ77733C9s8LzDO4Ro8Q9C54pw8Ea+99lp9YLPOKoSjlCSDG3boFWBPPvlkmWqqqeq7YT143DMtvdjfQ8rPOOOMassffPBBV1055phj6nMyve7s2muvrc+9fPXVV8u8885bppxyyrLTTjvV986Gx8xjoLzeTF3wdpnOdMcdd5THHnusPibq3XffrfUkaScpzJIk+QJ33XVXmXXWWWsHQQwRPC+//HId3XsVWedoW8dw3XXXlamnnrq+z1IHo+HffPPNa0dEiHmrhlG9Dkj58803X3/JqN6rz5y3ud054Zw6qMkmm6yewzmVxUvggc7COjo723RWrj1JBjfscMUVVyxHHXVUfWm/9ydfffXVZZxxxqneK14v739l/2yZECPcvDZQfkJsiy22KHPMMUdZbrnlap0wgMELL7xQX8TftHX10xtmvKu2mVZeeeWy22679cuVtJkUZkmS9AcBFO969WmErfPwcOUIu8hDGPkkwAilGWecsXrTiK5pp522vgVDhyL0ooPRKShDfh2J4yMpR2elDMKquU+C69A56cRWWGGF+hJzXoThhx++TDDBBGXSSSctQw01VN3mBekpzJI2wLYNNniO1QPeMfa78847VxvdYIMNukKZ1iN5l7K31PCSSd4ko/6sueaa9e0xyphrrrnKOuus01VH4FWBs802W51f1kzCl7vuumu/XEmbSWGWJEl/bLPNNrWjIICmmmqq8vDDD5cRRxyxhlV4pIz4LRvhG90TUiY163SEV3bZZZf6sv6FF164bLLJJlWQ8QDId8QRR9SQYxDCi4jjbRM+DdHXmfbZZ5+yzDLL1A7rqquuqse88sor9bVmV155ZQ3TEGi2OV8Ks6QNsHdeXoMcAw8DE16up556qtp1CLOmrWPfffet+XnbpJFHHrl6ra+55poa3heyZOveTNM8lphTP+RrJnXkwQcf7C9v0k5SmCVJ0h8LLrhgbcQJsO22266su+661VNGCJmMHKFJ81SEDAku87wuv/zyOgdNZ/H666+Xc889tx6/+uqrl9NOO60ceeSRZayxxqqer4AIs77aaquVEUYYob67VthUOCbCkToQedxdttFGG9WwzFZbbVXDOcolIPfcc886J2eMMcao21xLzqFJ2gAbV3cIMZP/2TPb3mOPPaotCzsuvvjidfnAAw/sslvCTPiR91edEPpUrwxEHnjggTooYvPu3FQmb9qoo45a5pxzzpqnp2R+muOyfrSXFGZJklSIIJOHecnuv//+Ksx0IEKRBBcBZqKy0X0IJp/SLbfcUjsEIRbJssnGRJpO4Pjjj6/JtugQdFjKJLaWXHLJ6oUjzJ577rkajrQsr3zOIS/B5fqES018VuYJJ5xQkxsP4jwXX3xxegSSVhB1hL2GMLMu5Mhu1S9eM8vnn39+l93ut99+tR7xOm+88cZllFFGqcJMfgMTAxKPzlCuY9TVcccdtz5ag1hTD4477riudNlll9W6JIR6+OGH12tI2kkKsyRJKhpqo/ALL7ywhl0IM2JIZ3DDDTfUZGQvNGmZOIJOQaNvzotOgSdtqaWWqnPGNttss3LKKadUgWUemrJ0Do6RT4e0xBJL1HCPMCUx5pzPPPNMGXPMMeucGOtwvkMOOaSKNnd73nzzzbVTci2Eo2SZ+IvOLUnaQlOYRYI6wJ474TFTNw4++OCa1Af1x80A22+/fZ13pm6oW1HeRBNNVL1zd999dx3oEH+Sshwnr6kGnp0W50/aRwqzJEm+gLALYabxJthMONZJmGPmpgAeLndZQh7CTChy/PHHL+ONN14Zbrjh6rwWd2XqVIz+dRrCMjoTE/dNUBaqiflgIcxg/aabbqrzakyWhmc3CfV4NhPvAuEnhCm8ykMm2b788stnp5O0jqYwC0GFAQkz9Y5dGyypV81QJnjJTOxXXwx4Jp544jo4MjgxZ5NHTb0yPcHdnCnMvhukMEuS5As0hZmk4ZeEMnUilgP7CTNeMsfpgNwM4NEWhBkP16GHHlrDKzoSHYiJy0KPsa68pjBTpu2ev8SLB3ncmaZzM+fM89IIM52O8IxELK666qrZ6SStgxfLDTLseu+99643yrBZE/yXXnrpLhuWD252MRCR36BEmFK98UgND50V9lSOeqpumPdpQESYmZLg2WmRCDrPTCPYFltssRrKVG7STlKYJUnyBZrCLLDsJgDCrHM7YeZxFbxXEs+a55oRZkKZIeSM9MNT0PQaKKMpzHrC/DNzzLymxoNmCTNizKMIJJ6FVVZZpb/rS5I2YKDCNg1G3LgSNttMBJh5mTBH7NRTT631ZPfdd69CzbHuuhTGv+2222p+bwVg7x4w69EZzbuem6hrl1xySb3JwDFR95L2kcIsSZIvEM8x0xHoMDzA1WibV0wHYdk281yMvAkznirLRuuEk1AjYeYRGMKVbvV3Z5lOATqTEFADI8x0JO4WHXLIIctBBx1Ur40wExIlGCXXkB6zpI2EvQ/INpv7m/m7S808ncvdEfubKWknKcySJPkCwiSEGaFFBJlsLAmh7LDDDl3rHigrj5E4QUQ8eQyA8KUJ/DwDcYxPXoBmGDRQhsdqDGjui+N4E3jgIgTqXMolJCV3h5r0nJ1OkiTfVVKYJUnyBbxSiQgaGIFDIAmjmPNFmJnrEsJpYJFXyEbqTrgF9plf5tO1mTfjfEGUk8IsSZLvKinMkiTpFuJmYARO5Gvmby4PDM3jB3RcZ57O/J3rSZIk3zVSmCVJkiRJkrSEFGZJkiRJkiQtIYVZkiRJkiRJS0hhliRJkiRJ0hJSmCVJkiRJkrSEFGZJkiRJkiQtIYVZkiRJkiRJS0hhliRJkiRJ0hJSmCVJkiRJkrSEFGZJkiRJkiQtIYVZkiRJkiRJS0hhliRJkiRJ0hJSmCVJkiRJkrSEFGZJkiRJkiQtIYVZkiRJkiRJS0hhliRJkiRJ0hJSmCVJkiRJkrSCUv4fSon22QAYCN8AAAAASUVORK5CYII=&quot;&gt;" style="whiteSpace=wrap;html=1;align=left;verticalAlign=top;rounded=0;" vertex="1" parent="1">
          <mxGeometry x="460" y="599" width="120" height="60" as="geometry" />
        </mxCell>
      </root>
    </mxGraphModel>
  </diagram>
</mxfile>
